<svg width="24" height="24" viewBox="0 0 24 24" fill="none" xmlns="http://www.w3.org/2000/svg">
  <!-- Hanger top hook -->
  <path d="M12 2C11.4477 2 11 2.44772 11 3V5C11 5.55228 11.4477 6 12 6C12.5523 6 13 5.55228 13 5V3C13 2.44772 12.5523 2 12 2Z" fill="currentColor"/>
  <!-- Hanger body -->
  <path d="M21 16L12.5 8.5C12.1873 8.18934 11.8127 8.18934 11.5 8.5L3 16C2.44772 16 2 16.4477 2 17C2 17.5523 2.44772 18 3 18H21C21.5523 18 22 17.5523 22 17C22 16.4477 21.5523 16 21 16Z" fill="currentColor"/>
  <!-- Dress outline -->
  <path d="M9 18V22H15V18" stroke="currentColor" stroke-width="1.5" stroke-linecap="round"/>
  <!-- Dress details -->
  <path d="M10 20H14" stroke="currentColor" stroke-width="1" stroke-linecap="round"/>
</svg>